<?xml version="1.0" encoding="UTF-8" standalone="no"?>
<svg width="305px" height="140px" viewBox="0 0 305 140" version="1.1" xmlns="http://www.w3.org/2000/svg" xmlns:xlink="http://www.w3.org/1999/xlink">
    <!-- Generator: Sketch 3.6.1 (26313) - http://www.bohemiancoding.com/sketch -->
    <title>comms-circles</title>
    <desc>Created with Sketch.</desc>
    <defs>
        <path id="path-1" d="M0,0 L57.5461107,8.77419355 L66.3993585,65.8064516 L0,65.8064516 L0,0 L0,0 L0,0 L0,0 Z"></path>
        <path id="path-3" d="M0,0 L57.5461107,8.77419355 L66.3993585,65.8064516 L0,65.8064516 L0,0 L0,0 L0,0 L0,0 Z"></path>
        <path id="path-5" d="M0,0 L57.5461107,8.77419355 L66.3993585,65.8064516 L0,65.8064516 L0,0 L0,0 L0,0 L0,0 Z"></path>
        <path id="path-7" d="M0,0 L57.5461107,8.77419355 L66.3993585,65.8064516 L0,65.8064516 L0,0 L0,0 L0,0 L0,0 Z"></path>
        <path id="path-9" d="M0,0 L57.5461107,8.77419355 L66.3993585,65.8064516 L0,65.8064516 L0,0 L0,0 L0,0 L0,0 Z"></path>
        <path id="path-11" d="M0,0 L57.5461107,8.77419355 L66.3993585,65.8064516 L0,65.8064516 L0,0 L0,0 L0,0 L0,0 Z"></path>
    </defs>
    <g id="Page-1" stroke="none" stroke-width="1" fill="none" fill-rule="evenodd">
        <g id="comms-circles" transform="translate(-235.000000, 0.000000)">
            <g id="Page-1">
                <g id="comms-circles">
                    <g id="Page-1">
                        <g id="d-10-b">
                            <g id="Écrans">
                                <g id="D10.-Comms">
                                    <g id="S-Band-+-Ku-Band">
                                        <g id="S-Band">
                                            <path d="M299.842021,127.032258 C331.62386,127.032258 357.388132,101.498046 357.388132,70 C357.388132,38.5019536 331.62386,12.9677419 299.842021,12.9677419 C268.060181,12.9677419 242.29591,38.5019536 242.29591,70 C242.29591,101.498046 268.060181,127.032258 299.842021,127.032258 L299.842021,127.032258 L299.842021,127.032258 L299.842021,127.032258 Z" id="Signal-Vert" stroke="#1EDF7A" stroke-width="8" fill-opacity="0.140000001" fill="#1EDF7A"></path>
                                            <g id="s-two-up-yellow" transform="translate(299.842021, 2.000000)">
                                                <g id="mask-5"></g>
                                                <g id="Jaune-Clipped">
                                                    <g id="mask-10" fill="#080808">
                                                        <path d="M0,0 L57.5461107,8.77419355 L66.3993585,65.8064516 L0,65.8064516 L0,0 L0,0 L0,0 L0,0 Z" id="path-9"></path>
                                                    </g>
                                                    <g id="path-4"></g>
                                                    <g id="Group">
                                                        <g id="mask-2" fill="#000000">
                                                            <path d="M0,0 L57.5461107,8.77419355 L66.3993585,65.8064516 L0,65.8064516 L0,0 L0,0 L0,0 L0,0 Z" id="path-1"></path>
                                                        </g>
                                                        <g id="path-9"></g>
                                                        <g id="Jaune-Clipped">
                                                            <mask id="mask-2" fill="white">
                                                                <use xlink:href="#path-1"></use>
                                                            </mask>
                                                            <g id="path-1"></g>
                                                            <path d="M0,120.645161 C29.3370825,120.645161 53.1194868,97.0751197 53.1194868,68 C53.1194868,38.9248803 29.3370825,15.3548387 0,15.3548387 C-29.3370825,15.3548387 -53.1194868,38.9248803 -53.1194868,68 C-53.1194868,97.0751197 -29.3370825,120.645161 0,120.645161 L0,120.645161 L0,120.645161 L0,120.645161 Z" id="Jaune" stroke="#FFE620" stroke-width="8" fill-opacity="0.14" fill="#FFE620" mask="url(#mask-2)"></path>
                                                        </g>
                                                    </g>
                                                </g>
                                            </g>
                                            <g id="s-two-bottom-yellow" transform="translate(450.842021, 70.000000) scale(1, -1) translate(-450.842021, -70.000000) translate(299.842021, 2.000000)">
                                                <g id="mask-5"></g>
                                                <g id="Jaune-Clipped">
                                                    <g id="mask-12" fill="#080808">
                                                        <path d="M0,0 L57.5461107,8.77419355 L66.3993585,65.8064516 L0,65.8064516 L0,0 L0,0 L0,0 L0,0 Z" id="path-11"></path>
                                                    </g>
                                                    <g id="path-4"></g>
                                                    <g id="Group">
                                                        <g id="mask-4" fill="#000000">
                                                            <path d="M0,0 L57.5461107,8.77419355 L66.3993585,65.8064516 L0,65.8064516 L0,0 L0,0 L0,0 L0,0 Z" id="path-3"></path>
                                                        </g>
                                                        <g id="path-11"></g>
                                                        <g id="Jaune-Clipped">
                                                            <mask id="mask-4" fill="white">
                                                                <use xlink:href="#path-3"></use>
                                                            </mask>
                                                            <g id="path-3"></g>
                                                            <path d="M0,120.645161 C29.3370825,120.645161 53.1194868,97.0751197 53.1194868,68 C53.1194868,38.9248803 29.3370825,15.3548387 0,15.3548387 C-29.3370825,15.3548387 -53.1194868,38.9248803 -53.1194868,68 C-53.1194868,97.0751197 -29.3370825,120.645161 0,120.645161 L0,120.645161 L0,120.645161 L0,120.645161 Z" id="Jaune" stroke="#FFE620" stroke-width="8" fill-opacity="0.14" fill="#FFE620" mask="url(#mask-4)"></path>
                                                        </g>
                                                    </g>
                                                </g>
                                            </g>
                                            <g id="s-one-bottom-yellow" transform="translate(151.055334, 70.000000) scale(-1, -1) translate(-151.055334, -70.000000) translate(0.055334, 2.000000)">
                                                <g id="mask-5"></g>
                                                <g id="Jaune-Clipped">
                                                    <g id="mask-14" fill="#080808">
                                                        <path d="M0,0 L57.5461107,8.77419355 L66.3993585,65.8064516 L0,65.8064516 L0,0 L0,0 L0,0 L0,0 Z" id="path-13"></path>
                                                    </g>
                                                    <g id="path-4"></g>
                                                    <g id="Group">
                                                        <g id="mask-6" fill="#000000">
                                                            <path d="M0,0 L57.5461107,8.77419355 L66.3993585,65.8064516 L0,65.8064516 L0,0 L0,0 L0,0 L0,0 Z" id="path-5"></path>
                                                        </g>
                                                        <g id="path-13"></g>
                                                        <g id="Jaune-Clipped">
                                                            <mask id="mask-6" fill="white">
                                                                <use xlink:href="#path-5"></use>
                                                            </mask>
                                                            <g id="path-5"></g>
                                                            <path d="M-7.10542736e-15,120.645161 C29.3370825,120.645161 53.1194868,97.0751197 53.1194868,68 C53.1194868,38.9248803 29.3370825,15.3548387 -7.10542736e-15,15.3548387 C-29.3370825,15.3548387 -53.1194868,38.9248803 -53.1194868,68 C-53.1194868,97.0751197 -29.3370825,120.645161 -7.10542736e-15,120.645161 L-7.10542736e-15,120.645161 L-7.10542736e-15,120.645161 L-7.10542736e-15,120.645161 Z" id="Jaune" stroke="#FFE620" stroke-width="8" fill-opacity="0.14" fill="#FFE620" mask="url(#mask-6)"></path>
                                                        </g>
                                                    </g>
                                                </g>
                                            </g>
                                            <g id="s-one-up-yellow" transform="translate(151.055334, 70.000000) scale(-1, 1) translate(-151.055334, -70.000000) translate(0.055334, 2.000000)">
                                                <g id="mask-5"></g>
                                                <g id="Jaune-Clipped">
                                                    <g id="mask-16" fill="#080808">
                                                        <path d="M0,0 L57.5461107,8.77419355 L66.3993585,65.8064516 L0,65.8064516 L0,0 L0,0 L0,0 L0,0 Z" id="path-15"></path>
                                                    </g>
                                                    <g id="path-4"></g>
                                                    <g id="Group">
                                                        <g id="mask-8" fill="#000000">
                                                            <path d="M0,0 L57.5461107,8.77419355 L66.3993585,65.8064516 L0,65.8064516 L0,0 L0,0 L0,0 L0,0 Z" id="path-7"></path>
                                                        </g>
                                                        <g id="path-15"></g>
                                                        <g id="Jaune-Clipped">
                                                            <mask id="mask-8" fill="white">
                                                                <use xlink:href="#path-7"></use>
                                                            </mask>
                                                            <g id="path-7"></g>
                                                            <path d="M0,120.645161 C29.3370825,120.645161 53.1194868,97.0751197 53.1194868,68 C53.1194868,38.9248803 29.3370825,15.3548387 0,15.3548387 C-29.3370825,15.3548387 -53.1194868,38.9248803 -53.1194868,68 C-53.1194868,97.0751197 -29.3370825,120.645161 0,120.645161 L0,120.645161 L0,120.645161 L0,120.645161 Z" id="Jaune" stroke="#FFE620" stroke-width="8" fill-opacity="0.14" fill="#FFE620" mask="url(#mask-8)"></path>
                                                        </g>
                                                    </g>
                                                </g>
                                            </g>
                                            <circle id="Découpe" fill="#000000" cx="299" cy="67" r="35"></circle>
                                            <rect id="Découpe" fill="#000000" x="235" y="67.8064516" width="130.949997" height="4.38709677"></rect>
                                            <ellipse id="Gris" fill="#080808" opacity="0.1" cx="299.842021" cy="70" rx="26.5597434" ry="26.3225806"></ellipse>
                                            <rect id="Découpe" fill="#000000" x="297.628709" y="0.580000043" width="4.4266239" height="137.839996"></rect>
                                            <path d="M387.808049,119.643842 L381.082103,112.917897 L383,111 L392.041051,120.041051 L393,121 L392.041051,121.958949 L383,131 L381.082103,129.082103 L387.808049,122.356158 L373,122.356158 L373,119.643842 L387.808049,119.643842 L387.808049,119.643842 L387.808049,119.643842 L387.808049,119.643842 Z" id="Downlink" fill="#9B9B9B" transform="translate(383.000000, 121.000000) rotate(90.000000) translate(-383.000000, -121.000000) "></path>
                                            <path d="M387.808049,21.6438423 L381.082103,14.9178967 L383,13 L392.041051,22.0410517 L393,23 L392.041051,23.9589483 L383,33 L381.082103,31.0821033 L387.808049,24.3561577 L373,24.3561577 L373,21.6438423 L387.808049,21.6438423 L387.808049,21.6438423 L387.808049,21.6438423 L387.808049,21.6438423 Z" id="Uplink" fill="#9B9B9B" transform="translate(383.000000, 23.000000) rotate(-90.000000) translate(-383.000000, -23.000000) "></path>
                                            <g id="s-two-bottom-red" transform="translate(302.000000, 71.000000)">
                                                <rect id="Rectangle-3" fill="#080808" x="0" y="0" width="60" height="60"></rect>
                                                <g id="path-3-link" transform="translate(1.000000, 0.000000)" fill="#FC3D21">
                                                    <path d="M0,29.8741944 C15.8745074,28.5266138 28.5266138,15.8745074 29.8741944,0 L0,0 L0,29.8741944 L0,29.8741944 L0,29.8741944 Z" id="path-3"></path>
                                                </g>
                                            </g>
                                            <g id="s-one-bottom-red" transform="translate(268.128709, 101.000000) scale(-1, 1) translate(-268.128709, -101.000000) translate(237.628709, 71.000000)">
                                                <rect id="Rectangle-3" fill="#080808" x="0.998708886" y="0" width="60" height="60"></rect>
                                                <g id="path-3-link" transform="translate(1.000000, 0.000000)" fill="#FC3D21">
                                                    <path d="M0,29.8741944 C15.8745074,28.5266138 28.5266138,15.8745074 29.8741944,0 L0,0 L0,29.8741944 L0,29.8741944 L0,29.8741944 Z" id="path-3"></path>
                                                </g>
                                            </g>
                                            <g id="s-one-up-red" transform="translate(268.000000, 38.000000) scale(-1, -1) translate(-268.000000, -38.000000) translate(238.000000, 8.000000)">
                                                <rect id="Rectangle-3" fill="#080808" x="0" y="0" width="60" height="60"></rect>
                                                <g id="path-3-link" fill="#FC3D21">
                                                    <path d="M0,29.8741944 C15.8745074,28.5266138 28.5266138,15.8745074 29.8741944,0 L0,0 L0,29.8741944 L0,29.8741944 L0,29.8741944 Z" id="path-3"></path>
                                                </g>
                                            </g>
                                            <g id="s-two-up-red" transform="translate(332.000000, 38.000000) scale(1, -1) translate(-332.000000, -38.000000) translate(302.000000, 8.000000)">
                                                <rect id="Rectangle-3" fill="#080808" x="0" y="0" width="60" height="60"></rect>
                                                <g id="path-3-link" transform="translate(1.000000, 0.000000)" fill="#FC3D21">
                                                    <path d="M0,29.8741944 C15.8745074,28.5266138 28.5266138,15.8745074 29.8741944,0 L0,0 L0,29.8741944 L0,29.8741944 L0,29.8741944 Z" id="path-3"></path>
                                                </g>
                                            </g>
                                        </g>
                                        <g id="Ku-Band" transform="translate(170.000000, 1.000000)">
                                            <path d="M299.842021,127.032258 C331.62386,127.032258 357.388132,101.498046 357.388132,70 C357.388132,38.5019536 331.62386,12.9677419 299.842021,12.9677419 C268.060181,12.9677419 242.29591,38.5019536 242.29591,70 C242.29591,101.498046 268.060181,127.032258 299.842021,127.032258 L299.842021,127.032258 L299.842021,127.032258 L299.842021,127.032258 Z" id="Signal-Vert" stroke="#1EDF7A" stroke-width="8" fill-opacity="0.140000001" fill="#1EDF7A"></path>
                                            <g id="ku-two-up-yellow" transform="translate(299.842021, 2.000000)">
                                                <g id="mask-5"></g>
                                                <g id="Jaune-Clipped">
                                                    <g id="mask-10" fill="#080808">
                                                        <path d="M0,0 L57.5461107,8.77419355 L66.3993585,65.8064516 L0,65.8064516 L0,0 L0,0 L0,0 L0,0 Z" id="path-9"></path>
                                                    </g>
                                                    <g id="path-4"></g>
                                                    <g id="Group">
                                                        <g id="mask-2" fill="#000000">
                                                            <path d="M0,0 L57.5461107,8.77419355 L66.3993585,65.8064516 L0,65.8064516 L0,0 L0,0 L0,0 L0,0 Z" id="path-1"></path>
                                                        </g>
                                                        <g id="path-9"></g>
                                                        <g id="Jaune-Clipped">
                                                            <mask id="mask-2" fill="white">
                                                                <use xlink:href="#path-1"></use>
                                                            </mask>
                                                            <g id="path-1"></g>
                                                            <path d="M0,120.645161 C29.3370825,120.645161 53.1194868,97.0751197 53.1194868,68 C53.1194868,38.9248803 29.3370825,15.3548387 0,15.3548387 C-29.3370825,15.3548387 -53.1194868,38.9248803 -53.1194868,68 C-53.1194868,97.0751197 -29.3370825,120.645161 0,120.645161 L0,120.645161 L0,120.645161 L0,120.645161 Z" id="Jaune" stroke="#FFE620" stroke-width="8" fill-opacity="0.14" fill="#FFE620" mask="url(#mask-2)"></path>
                                                        </g>
                                                    </g>
                                                </g>
                                            </g>
                                            <g id="ku-two-bottom-yellow" transform="translate(450.842021, 70.000000) scale(1, -1) translate(-450.842021, -70.000000) translate(299.842021, 2.000000)">
                                                <g id="mask-5"></g>
                                                <g id="Jaune-Clipped">
                                                    <g id="mask-12" fill="#080808">
                                                        <path d="M0,0 L57.5461107,8.77419355 L66.3993585,65.8064516 L0,65.8064516 L0,0 L0,0 L0,0 L0,0 Z" id="path-11"></path>
                                                    </g>
                                                    <g id="path-4"></g>
                                                    <g id="Group">
                                                        <g id="mask-4" fill="#000000">
                                                            <path d="M0,0 L57.5461107,8.77419355 L66.3993585,65.8064516 L0,65.8064516 L0,0 L0,0 L0,0 L0,0 Z" id="path-3"></path>
                                                        </g>
                                                        <g id="path-11"></g>
                                                        <g id="Jaune-Clipped">
                                                            <mask id="mask-4" fill="white">
                                                                <use xlink:href="#path-3"></use>
                                                            </mask>
                                                            <g id="path-3"></g>
                                                            <path d="M0,120.645161 C29.3370825,120.645161 53.1194868,97.0751197 53.1194868,68 C53.1194868,38.9248803 29.3370825,15.3548387 0,15.3548387 C-29.3370825,15.3548387 -53.1194868,38.9248803 -53.1194868,68 C-53.1194868,97.0751197 -29.3370825,120.645161 0,120.645161 L0,120.645161 L0,120.645161 L0,120.645161 Z" id="Jaune" stroke="#FFE620" stroke-width="8" fill-opacity="0.14" fill="#FFE620" mask="url(#mask-4)"></path>
                                                        </g>
                                                    </g>
                                                </g>
                                            </g>
                                            <g id="ku-one-bottom-yellow" transform="translate(151.055334, 70.000000) scale(-1, -1) translate(-151.055334, -70.000000) translate(0.055334, 2.000000)">
                                                <g id="mask-5"></g>
                                                <g id="Jaune-Clipped">
                                                    <g id="mask-14" fill="#080808">
                                                        <path d="M0,0 L57.5461107,8.77419355 L66.3993585,65.8064516 L0,65.8064516 L0,0 L0,0 L0,0 L0,0 Z" id="path-13"></path>
                                                    </g>
                                                    <g id="path-4"></g>
                                                    <g id="Group">
                                                        <g id="mask-6" fill="#000000">
                                                            <path d="M0,0 L57.5461107,8.77419355 L66.3993585,65.8064516 L0,65.8064516 L0,0 L0,0 L0,0 L0,0 Z" id="path-5"></path>
                                                        </g>
                                                        <g id="path-13"></g>
                                                        <g id="Jaune-Clipped">
                                                            <mask id="mask-6" fill="white">
                                                                <use xlink:href="#path-5"></use>
                                                            </mask>
                                                            <g id="path-5"></g>
                                                            <path d="M-7.10542736e-15,120.645161 C29.3370825,120.645161 53.1194868,97.0751197 53.1194868,68 C53.1194868,38.9248803 29.3370825,15.3548387 -7.10542736e-15,15.3548387 C-29.3370825,15.3548387 -53.1194868,38.9248803 -53.1194868,68 C-53.1194868,97.0751197 -29.3370825,120.645161 -7.10542736e-15,120.645161 L-7.10542736e-15,120.645161 L-7.10542736e-15,120.645161 L-7.10542736e-15,120.645161 Z" id="Jaune" stroke="#FFE620" stroke-width="8" fill-opacity="0.14" fill="#FFE620" mask="url(#mask-6)"></path>
                                                        </g>
                                                    </g>
                                                </g>
                                            </g>
                                            <g id="ku-one-up-yellow" transform="translate(151.055334, 70.000000) scale(-1, 1) translate(-151.055334, -70.000000) translate(0.055334, 2.000000)">
                                                <g id="mask-5"></g>
                                                <g id="Jaune-Clipped">
                                                    <g id="mask-16" fill="#080808">
                                                        <path d="M0,0 L57.5461107,8.77419355 L66.3993585,65.8064516 L0,65.8064516 L0,0 L0,0 L0,0 L0,0 Z" id="path-15"></path>
                                                    </g>
                                                    <g id="path-4"></g>
                                                    <g id="Group">
                                                        <g id="mask-8" fill="#000000">
                                                            <path d="M0,0 L57.5461107,8.77419355 L66.3993585,65.8064516 L0,65.8064516 L0,0 L0,0 L0,0 L0,0 Z" id="path-7"></path>
                                                        </g>
                                                        <g id="path-15"></g>
                                                        <g id="Jaune-Clipped">
                                                            <mask id="mask-8" fill="white">
                                                                <use xlink:href="#path-7"></use>
                                                            </mask>
                                                            <g id="path-7"></g>
                                                            <path d="M0,120.645161 C29.3370825,120.645161 53.1194868,97.0751197 53.1194868,68 C53.1194868,38.9248803 29.3370825,15.3548387 0,15.3548387 C-29.3370825,15.3548387 -53.1194868,38.9248803 -53.1194868,68 C-53.1194868,97.0751197 -29.3370825,120.645161 0,120.645161 L0,120.645161 L0,120.645161 L0,120.645161 Z" id="Jaune" stroke="#FFE620" stroke-width="8" fill-opacity="0.14" fill="#FFE620" mask="url(#mask-8)"></path>
                                                        </g>
                                                    </g>
                                                </g>
                                            </g>
                                            <circle id="Découpe" fill="#000000" cx="299" cy="67" r="35"></circle>
                                            <rect id="Découpe" fill="#000000" x="235" y="67.8064516" width="130.949997" height="4.38709677"></rect>
                                            <ellipse id="Gris" fill="#080808" opacity="0.1" cx="299.842021" cy="70" rx="26.5597434" ry="26.3225806"></ellipse>
                                            <rect id="Découpe" fill="#000000" x="297.628709" y="0.580000043" width="4.4266239" height="137.839996"></rect>
                                            <path d="M387.808049,119.643842 L381.082103,112.917897 L383,111 L392.041051,120.041051 L393,121 L392.041051,121.958949 L383,131 L381.082103,129.082103 L387.808049,122.356158 L373,122.356158 L373,119.643842 L387.808049,119.643842 L387.808049,119.643842 L387.808049,119.643842 L387.808049,119.643842 Z" id="Downlink" fill="#9B9B9B" transform="translate(383.000000, 121.000000) rotate(90.000000) translate(-383.000000, -121.000000) "></path>
                                            <path d="M387.808049,21.6438423 L381.082103,14.9178967 L383,13 L392.041051,22.0410517 L393,23 L392.041051,23.9589483 L383,33 L381.082103,31.0821033 L387.808049,24.3561577 L373,24.3561577 L373,21.6438423 L387.808049,21.6438423 L387.808049,21.6438423 L387.808049,21.6438423 L387.808049,21.6438423 Z" id="Uplink" fill="#9B9B9B" transform="translate(383.000000, 23.000000) rotate(-90.000000) translate(-383.000000, -23.000000) "></path>
                                            <g id="ku-two-bottom-red" transform="translate(302.000000, 71.000000)">
                                                <rect id="Rectangle-3" fill="#080808" x="0" y="0" width="60" height="60"></rect>
                                                <g id="path-3-link" transform="translate(1.000000, 0.000000)" fill="#FC3D21">
                                                    <path d="M0,29.8741944 C15.8745074,28.5266138 28.5266138,15.8745074 29.8741944,0 L0,0 L0,29.8741944 L0,29.8741944 L0,29.8741944 Z" id="path-3"></path>
                                                </g>
                                            </g>
                                            <g id="ku-one-bottom-red" transform="translate(268.128709, 101.000000) scale(-1, 1) translate(-268.128709, -101.000000) translate(237.628709, 71.000000)">
                                                <rect id="Rectangle-3" fill="#080808" x="0.998708886" y="0" width="60" height="60"></rect>
                                                <g id="path-3-link" transform="translate(1.000000, 0.000000)" fill="#FC3D21">
                                                    <path d="M0,29.8741944 C15.8745074,28.5266138 28.5266138,15.8745074 29.8741944,0 L0,0 L0,29.8741944 L0,29.8741944 L0,29.8741944 Z" id="path-3"></path>
                                                </g>
                                            </g>
                                            <g id="ku-one-up-red" transform="translate(268.000000, 38.000000) scale(-1, -1) translate(-268.000000, -38.000000) translate(238.000000, 8.000000)">
                                                <rect id="Rectangle-3" fill="#080808" x="0" y="0" width="60" height="60"></rect>
                                                <g id="path-3-link" fill="#FC3D21">
                                                    <path d="M0,29.8741944 C15.8745074,28.5266138 28.5266138,15.8745074 29.8741944,0 L0,0 L0,29.8741944 L0,29.8741944 L0,29.8741944 Z" id="path-3"></path>
                                                </g>
                                            </g>
                                            <g id="ku-two-up-red" transform="translate(332.000000, 38.000000) scale(1, -1) translate(-332.000000, -38.000000) translate(302.000000, 8.000000)">
                                                <rect id="Rectangle-3" fill="#080808" x="0" y="0" width="60" height="60"></rect>
                                                <g id="path-3-link" transform="translate(1.000000, 0.000000)" fill="#FC3D21">
                                                    <path d="M0,29.8741944 C15.8745074,28.5266138 28.5266138,15.8745074 29.8741944,0 L0,0 L0,29.8741944 L0,29.8741944 L0,29.8741944 Z" id="path-3"></path>
                                                </g>
                                            </g>
                                        </g>
                                    </g>
                                    <g id="S-Copy" transform="translate(447.000000, 50.000000)" font-size="30" font-family="Helvetica" fill="#FFFFFF" font-weight="normal">
                                        <g id="S">
                                            <g id="1">
                                                <text>
                                                    <tspan x="0" y="29" fill="#fff">1</tspan>
                                                </text>
                                            </g>
                                        </g>
                                    </g>
                                    <g id="S-Copy-Copy-2" transform="translate(277.000000, 51.000000)" font-size="30" font-family="Helvetica" fill="#FFFFFF" font-weight="normal">
                                        <g id="S">
                                            <g id="1">
                                                <text>
                                                    <tspan x="0" y="29" fill="#fff">1</tspan>
                                                </text>
                                            </g>
                                        </g>
                                    </g>
                                    <g id="S-Copy-Copy" transform="translate(478.000000, 51.000000)" font-size="30" font-family="Helvetica" fill="#FFFFFF" font-weight="normal">
                                        <g id="S">
                                            <g id="2">
                                                <text>
                                                    <tspan x="0" y="29" fill="#fff">2</tspan>
                                                </text>
                                            </g>
                                        </g>
                                    </g>
                                    <g id="S-Copy-Copy-3" transform="translate(308.000000, 52.000000)" font-size="30" font-family="Helvetica" fill="#FFFFFF" font-weight="normal">
                                        <g id="S">
                                            <g id="2">
                                                <text>
                                                    <tspan x="0" y="29" fill="#fff">2</tspan>
                                                </text>
                                            </g>
                                        </g>
                                    </g>
                                </g>
                            </g>
                        </g>
                    </g>
                </g>
            </g>
        </g>
    </g>
</svg>