<?xml version="1.0" encoding="UTF-8" standalone="no"?>
<svg width="200px" height="80px" viewBox="0 0 200 80" version="1.1" xmlns="http://www.w3.org/2000/svg" xmlns:xlink="http://www.w3.org/1999/xlink" xmlns:sketch="http://www.bohemiancoding.com/sketch/ns">
    <!-- Generator: Sketch 3.5.1 (25234) - http://www.bohemiancoding.com/sketch -->
    <title>Contrôles</title>
    <desc>Created with Sketch.</desc>
    <defs></defs>
    <g id="Page-1" stroke="none" stroke-width="1" fill="none" fill-rule="evenodd" sketch:type="MSPage">
        <g id="b-10-b" sketch:type="MSLayerGroup" transform="translate(-60.000000, -700.000000)" fill="#2094FA">
            <g id="Écrans" sketch:type="MSShapeGroup">
                <g id="B10.-Timers">
                    <g id="Contrôles" transform="translate(60.000000, 700.000000)">
                        <circle id="Chrono" opacity="0.2" cx="160" cy="40" r="40"></circle>
                        <path d="M172.359126,27.9044623 C173.401703,27.896564 174.842157,27.8827419 174.913242,27.8699072 C175.023818,27.8511487 175.139331,27.7889495 175.232136,27.6951571 L178.011354,24.9159395 C178.104159,24.8231344 178.168333,24.7076216 178.186104,24.5980326 C178.204862,24.4835071 178.18018,24.3837909 178.114032,24.3176426 L174.866839,21.0724248 C174.802666,21.0062764 174.700975,20.9825815 174.590399,20.9993654 C174.479822,21.0181239 174.362335,21.0803231 174.270517,21.1741155 L171.4913,23.9523458 C171.398494,24.0451509 171.334321,24.161651 171.315562,24.2742019 C171.303715,24.3502231 171.296804,26.0059062 171.293842,27.0573686 C168.693323,25.1064862 165.608046,23.7805576 162.24929,23.2869132 L162.24929,19.0455212 L163.912872,19.0455212 C164.042207,19.0455212 164.169567,19.0080042 164.25941,18.9418559 C164.355177,18.8766948 164.407503,18.7868515 164.407503,18.6930591 L164.407503,14.1041414 C164.407503,14.0113363 164.353203,13.921493 164.261385,13.856332 C164.169567,13.7891963 164.042207,13.7526667 163.912872,13.7526667 L154.752808,13.7526667 C154.622485,13.7526667 154.4971,13.7891963 154.404295,13.856332 C154.313464,13.921493 154.259163,14.0113363 154.259163,14.1041414 L154.259163,18.6930591 C154.259163,18.7868515 154.313464,18.8766948 154.405282,18.9418559 C154.4971,19.0060296 154.622485,19.0455212 154.752808,19.0455212 L156.418364,19.0455212 L156.418364,23.2869132 C146.770579,24.705647 139.333333,33.0136811 139.333333,43.0465085 C139.333333,54.0764973 148.3068,63.0479894 159.334814,63.0479894 C170.361841,63.0479894 179.333333,54.0764973 179.333333,43.0465085 C179.333333,36.9954163 176.620264,31.5742142 172.359126,27.9044623 L172.359126,27.9044623 Z M159.334814,59.9627123 C150.005924,59.9627123 142.41861,52.3744117 142.41861,43.0465085 C142.41861,33.7215671 150.005924,26.1322792 159.334814,26.1322792 C168.660743,26.1322792 176.249044,33.7215671 176.249044,43.0465085 C176.249044,52.3744117 168.660743,59.9627123 159.334814,59.9627123 L159.334814,59.9627123 Z M167.403826,33.2094604 L158.372109,42.2401898 C157.894261,42.7180375 157.894261,43.4920718 158.372109,43.9699195 C158.849957,44.44678 159.623991,44.44678 160.100852,43.9699195 L169.132568,34.9382029 C169.608441,34.4603552 169.608441,33.6853336 169.132568,33.2094604 C168.655708,32.7316127 167.880686,32.7316127 167.403826,33.2094604 L167.403826,33.2094604 Z" id="Chrono"></path>
                        <circle id="Timer" opacity="0.2" cx="40" cy="40" r="40"></circle>
                        <path d="M19.6835832,49.8860728 C23.3785656,56.6506524 30.4727427,60.9500305 38.3225863,60.9500305 C50.0448386,60.9500305 59.5476016,51.4472675 59.5476016,39.7250152 C59.5476016,28.002763 50.0448386,18.5 38.3225863,18.5 C37.4941592,18.5 36.8225863,19.1715729 36.8225863,20 C36.8225863,20.8284271 37.4941592,21.5 38.3225863,21.5 C48.3879843,21.5 56.5476016,29.6596173 56.5476016,39.7250152 C56.5476016,49.7904132 48.3879843,57.9500305 38.3225863,57.9500305 C31.5809517,57.9500305 25.4905451,54.2589807 22.3164168,48.4479533 C21.919291,47.7209164 21.0079772,47.4534705 20.2809403,47.8505963 C19.5539034,48.247722 19.2864575,49.1590359 19.6835832,49.8860728 L19.6835832,49.8860728 Z M36.0708205,33.2802305 L21.7272929,41.0162395 L22.923255,43.4984323 L36.5085166,37.7267865 L36.0708205,33.2802305 L36.0708205,33.2802305 Z" id="Timer"></path>
                    </g>
                </g>
            </g>
        </g>
    </g>
</svg>