<?xml version="1.0" encoding="UTF-8" standalone="no"?>
<svg width="88px" height="33px" viewBox="0 0 88 33" version="1.1" xmlns="http://www.w3.org/2000/svg" xmlns:xlink="http://www.w3.org/1999/xlink" xmlns:sketch="http://www.bohemiancoding.com/sketch/ns">
    <!-- Generator: Sketch 3.4.4 (17249) - http://www.bohemiancoding.com/sketch -->
    <title>Radars11</title>
    <desc>Created with Sketch.</desc>
    <defs></defs>
    <g id="Page-1" stroke="none" stroke-width="1" fill="none" fill-rule="evenodd" sketch:type="MSPage">
        <g id="Radars11" sketch:type="MSLayerGroup">
            <g id="Page-1">
                <g id="z-10-(1)">
                    <g id="Écrans">
                        <g id="Z10.-Dashboard">
                            <g id="Comms-&amp;-Alerts">
                                <text id="S" sketch:type="MSTextLayer" font-family="Helvetica" font-size="14" font-weight="normal" fill="#FFFFFF">
                                    <tspan x="11" y="22">S</tspan>
                                </text>
                                <path d="M14,32.0479263 L13.9999996,26.9999999 C11.7391935,26.3277285 6.67227153,21.2608065 6.00000013,19.0000004 L0.9520737,19 C1.8449214,25.7831682 7.2168318,31.1550786 14,32.0479263 Z" id="s-band-4" fill="#1EDF7A" sketch:type="MSShapeGroup"></path>
                                <path d="M31.0479264,19 L26.4999999,19.0000003 C25.8277285,21.2608064 20.2608065,26.3277285 18.0000004,26.9999999 L18,32.0479263 C24.7831682,31.1550786 30.1550786,25.7831682 31.0479264,19 Z" id="s-band-3" fill="#1EDF7A" sketch:type="MSShapeGroup"></path>
                                <path d="M31.0479264,13.9999999 L25.9999999,13.9999996 C25.9778123,13.925384 25.5315026,14.0825761 25.4999999,13.9999996 C24.5769928,11.5805581 20.1861909,6.65008383 18.0000004,6.00000007 L18,0.95207364 C24.7831682,1.84492134 30.1550786,7.21683174 31.0479264,13.9999999 Z" id="s-band-2" fill="#1EDF7A" sketch:type="MSShapeGroup"></path>
                                <path d="M14,0.95207366 L13.9999996,6.00000009 C11.7391935,6.67227149 7.17227153,11.2391935 6.50000013,13.4999996 L0.9520737,14 C1.8449214,7.2168318 7.2168318,1.84492138 14,0.95207366 Z" id="s-band-1" fill="#1EDF7A" sketch:type="MSShapeGroup"></path>
                                <text id="K" sketch:type="MSTextLayer" font-family="Helvetica" font-size="14" font-weight="normal" fill="#FFFFFF">
                                    <tspan x="47" y="22">K</tspan>
                                </text>
                                <path d="M50,32.0479263 L49.9999996,26.9999999 C47.7391935,26.3277285 42.6722715,21.2608065 42.0000001,19.0000004 L36.9520737,19 C37.8449214,25.7831682 43.2168318,31.1550786 50,32.0479263 Z" id="k-band-4" fill="#1EDF7A" sketch:type="MSShapeGroup"></path>
                                <path d="M67.0479264,19 L62.4999999,19.0000003 C61.8277285,21.2608064 56.2608065,26.3277285 54.0000004,26.9999999 L54,32.0479263 C60.7831682,31.1550786 66.1550786,25.7831682 67.0479264,19 Z" id="k-band-3" fill="#1EDF7A" sketch:type="MSShapeGroup"></path>
                                <path d="M67.0479264,13.9999999 L61.9999999,13.9999996 C61.9778123,13.925384 61.5315026,14.0825761 61.4999999,13.9999996 C60.5769928,11.5805581 56.1861909,6.65008383 54.0000004,6.00000007 L54,0.95207364 C60.7831682,1.84492134 66.1550786,7.21683174 67.0479264,13.9999999 Z" id="k-band-2" fill="#1EDF7A" sketch:type="MSShapeGroup"></path>
                                <path d="M50,0.95207366 L49.9999996,6.00000009 C47.7391935,6.67227149 43.1722715,11.2391935 42.5000001,13.4999996 L36.9520737,14 C37.8449214,7.2168318 43.2168318,1.84492138 50,0.95207366 Z" id="k-band-1" fill="#1EDF7A" sketch:type="MSShapeGroup"></path>
                                <path d="M81,31 C84.3137085,31 87,28.3137085 87,25 C87,21.6862915 84.3137085,19 81,19 C77.6862915,19 75,21.6862915 75,25 C75,28.3137085 77.6862915,31 81,31 L81,31 Z" id="OCA" stroke="#979797" fill="#1EDF7A" sketch:type="MSShapeGroup"></path>
                                <path d="M81,13 C84.3137085,13 87,10.3137085 87,7 C87,3.6862915 84.3137085,1 81,1 C77.6862915,1 75,3.6862915 75,7 C75,10.3137085 77.6862915,13 81,13 L81,13 Z" id="IAC" stroke="#979797" fill="#1EDF7A" sketch:type="MSShapeGroup"></path>
                            </g>
                        </g>
                    </g>
                </g>
            </g>
        </g>
    </g>
</svg>